<?xml version="1.0" encoding="utf-8"?>
<!-- Generator: Adobe Illustrator 19.1.1, SVG Export Plug-In . SVG Version: 6.00 Build 0)  -->
<svg version="1.1" id="Layer_1" xmlns="http://www.w3.org/2000/svg" xmlns:xlink="http://www.w3.org/1999/xlink" x="0px" y="0px"
	 viewBox="0 0 1200 1200" enable-background="new 0 0 1200 1200" xml:space="preserve">
<g>
	<g>
		<g>
			<path fill="#FCD290" d="M416.467,679.753c-1.414,0-2.835-0.036-4.266-0.108s-2.871-0.181-4.321-0.327
				c-18.601-1.879-35.976-9.776-51.688-23.315c-15.712-13.54-29.763-32.722-41.713-57.171c-2.758-5.644-2.967-11.871-1.077-17.376
				c1.891-5.506,5.881-10.29,11.523-13.05c5.639-2.758,11.866-2.967,17.373-1.077s10.294,5.881,13.053,11.523
				c5.798,11.862,13.526,25.001,23.079,35.505c9.553,10.504,20.929,18.373,34.022,19.695c11.091,1.131,21.968-2.988,31.268-9.846
				s17.025-16.455,21.812-26.28c5.925-12.165,9.143-25.792,10.799-40s1.749-28.999,1.422-43.491
				c-0.049-2.186-0.106-4.375-0.167-6.565c-0.061-2.19-0.126-4.382-0.191-6.574c-0.424-14.418-0.855-29.082-0.254-43.866
				s2.236-29.689,5.944-44.59c1.518-6.094,5.365-10.996,10.355-13.996s11.122-4.098,17.212-2.584c6.096,1.518,11,5.362,14,10.35
				c3,4.989,4.098,11.121,2.581,17.217c-2.953,11.865-4.242,24.161-4.694,36.859c-0.452,12.698-0.066,25.798,0.33,39.272
				c0.067,2.245,0.132,4.489,0.194,6.732s0.12,4.483,0.171,6.722c0.393,17.355,0.217,35.202-2.071,52.841
				c-2.287,17.639-6.685,35.07-14.732,51.594c-7.722,15.857-19.906,31.334-35.312,42.846S437.083,679.753,416.467,679.753z"/>
			<path fill="#FCD290" d="M334.931,611.596c-4.208,0-8.335-1.173-11.903-3.355c-3.568-2.182-6.577-5.373-8.549-9.408
				c-4.367-8.933-8.422-18.087-12.141-27.398c-3.719-9.311-7.101-18.779-10.12-28.338c-1.893-5.99-1.178-12.179,1.507-17.344
				c2.685-5.165,7.342-9.305,13.331-11.197c5.988-1.891,12.177-1.177,17.342,1.509s9.306,7.34,11.199,13.33
				c2.681,8.487,5.684,16.891,8.983,25.154s6.898,16.384,10.771,24.306c2.758,5.644,2.967,11.871,1.077,17.377
				c-1.891,5.506-5.881,10.29-11.523,13.05c-1.607,0.785-3.262,1.365-4.935,1.747C338.298,611.409,336.608,611.596,334.931,611.596z
				"/>
			<path fill="#34AEBF" d="M313.901,558.997c-4.83,0-9.485-1.55-13.316-4.313c-3.831-2.763-6.837-6.738-8.368-11.589
				c-5.918-18.736-10.462-37.802-13.609-57.063c-3.147-19.261-4.898-38.717-5.231-58.234c-0.106-6.28,2.343-12.009,6.388-16.195
				c4.046-4.186,9.688-6.828,15.968-6.936c0.065-0.001,0.131-0.002,0.197-0.002c0.066-0.001,0.132-0.001,0.197-0.001
				c6.191,0,11.822,2.483,15.932,6.519c4.11,4.036,6.699,9.626,6.805,15.84c0.295,17.321,1.85,34.592,4.645,51.693
				c2.795,17.101,6.831,34.033,12.088,50.676c1.891,5.99,1.177,12.179-1.509,17.344c-2.685,5.165-7.34,9.305-13.33,11.197
				c-1.139,0.36-2.286,0.626-3.432,0.802C316.18,558.912,315.035,558.997,313.901,558.997z"/>
			<path fill="#EBD3D3" d="M339.159,529.973l-24.119,10.533l-24.119,10.533c-1.319,0.576-2.278,1.635-2.761,2.878
				c-0.483,1.243-0.489,2.671,0.096,3.987l6.131,13.791l6.131,13.791c0.564,1.268,1.577,2.203,2.772,2.693
				c1.195,0.491,2.572,0.537,3.865,0.031l23.948-9.885l23.948-9.885c1.443-0.566,2.479-1.696,2.973-3.028s0.445-2.865-0.28-4.234
				l-5.96-14.439l-5.96-14.439c-0.635-1.199-1.679-2.052-2.875-2.47C341.751,529.412,340.403,529.43,339.159,529.973z"/>
		</g>
		<path fill="#4CEAFC" d="M315.382,680.72h-90.986h-90.987V567.824V454.927c0-23.195,9.401-44.193,24.602-59.393
			s36.199-24.602,59.393-24.602h6.992h6.992c23.195,0,44.193,9.401,59.393,24.602s24.602,36.199,24.602,59.393v112.896V680.72z"/>
		<path fill="#502D43" d="M315.382,680.72c0,25.125-10.184,47.872-26.649,64.337c-16.465,16.465-39.212,26.649-64.337,26.649h0h0
			c-25.125,0-47.872-10.184-64.337-26.649c-16.465-16.465-26.649-39.212-26.649-64.337h90.987H315.382z"/>
		<g>
			<g>
				<rect x="173.394" y="719.714" fill="#502D43" width="45.491" height="430.286"/>
			</g>
			<path fill="#502D43" d="M275.895,1150V740.712c0-5.798-2.35-11.048-6.15-14.848c-3.8-3.8-9.049-6.15-14.848-6.15h-3.496
				c-5.798,0-11.048,2.35-14.848,6.15s-6.15,9.049-6.15,14.848V1150H275.895z"/>
		</g>
		<path fill="#FC523A" d="M290.57,895.375l-88.218,35.654l-88.218,35.654c-1.381,0.558-2.858,0.504-4.128-0.036
			s-2.336-1.563-2.894-2.944l-25.059-62.003l-25.059-62.003c-0.558-1.381-0.504-2.857,0.036-4.128
			c0.539-1.271,1.563-2.336,2.944-2.894l88.218-35.654l88.218-35.654c1.381-0.558,2.858-0.504,4.128,0.036s2.336,1.563,2.894,2.944
			l25.059,62.003l25.059,62.003c0.558,1.381,0.504,2.858-0.036,4.128C292.975,893.752,291.951,894.817,290.57,895.375z"/>
		<path fill="#FCD290" d="M185.193,927.967c-3.269,0-6.523-0.702-9.521-2.084s-5.741-3.445-7.986-6.166
			c-1.668-2.023-22.085-27.351-41.252-76.169c-19.167-48.818-37.085-121.126-33.753-217.109c0.544-15.63,1.663-31,3.345-46.005
			c1.682-15.004,3.928-29.643,6.727-43.811c1.215-6.164,4.816-11.253,9.653-14.494s10.91-4.636,17.069-3.413
			c6.163,1.217,11.248,4.816,14.488,9.652c3.24,4.836,4.636,10.908,3.419,17.071c-2.562,12.979-4.621,26.414-6.164,40.21
			c-1.543,13.795-2.57,27.951-3.07,42.371c-3.012,86.742,12.985,152.23,29.824,196.141c16.838,43.911,34.518,66.246,34.872,66.683
			c3.943,4.866,5.557,10.877,4.973,16.663c-0.584,5.785-3.365,11.345-8.213,15.309c-2.118,1.731-4.454,3.019-6.893,3.875
			S187.727,927.967,185.193,927.967z"/>
		<path fill="#34AEBF" d="M125.093,563.78c-0.731,0-1.468-0.035-2.207-0.107c-0.739-0.072-1.482-0.18-2.226-0.328
			c-6.163-1.217-11.248-4.816-14.488-9.652c-3.24-4.836-4.636-10.908-3.419-17.071c8.176-41.402,19.794-72.441,29.527-93.344
			c9.733-20.903,17.58-31.671,18.217-32.531c3.74-5.046,9.17-8.1,14.928-8.958c5.758-0.858,11.843,0.481,16.891,4.222
			c5.033,3.728,8.083,9.138,8.95,14.877c0.867,5.739-0.449,11.807-4.149,16.852c-0.273,0.382-6.682,9.461-14.785,27.367
			c-8.103,17.906-17.9,44.64-24.948,80.331c-1.069,5.419-3.982,10.004-7.957,13.235C135.45,561.904,130.413,563.78,125.093,563.78z"
			/>
		<path fill="#EBD3D3" d="M151.485,543.399l-25.954-4.366l-25.954-4.366c-1.42-0.239-2.801,0.123-3.885,0.9s-1.87,1.969-2.1,3.391
			l-2.406,14.899l-2.406,14.899c-0.221,1.37,0.116,2.706,0.849,3.77s1.86,1.856,3.219,2.139l26.886,5.587l26.886,5.587
			c1.517,0.315,3.003-0.065,4.145-0.91c1.141-0.845,1.939-2.155,2.08-3.699l1.473-16.12l1.473-16.12
			c0.124-1.352-0.284-2.637-1.057-3.64C153.962,544.346,152.823,543.624,151.485,543.399z"/>
		<path fill="#EBD3D3" d="M238.672,435.923h-2.12h-2.12c-7.034,0-13.401-2.851-18.011-7.46c-4.609-4.609-7.46-10.977-7.46-18.011
			v-38.038v-38.038h27.591h27.591v38.038v38.038c0,7.034-2.851,13.401-7.46,18.011C252.073,433.072,245.706,435.923,238.672,435.923
			z"/>
		<path fill="#FC935A" d="M238.672,409.927h-2.12h-2.12c-7.034,0-13.401-2.851-18.011-7.46c-4.609-4.609-7.46-10.977-7.46-18.011
			v-38.038v-38.038h27.591h27.591v38.038v38.038c0,7.034-2.851,13.401-7.46,18.011S245.706,409.927,238.672,409.927z"/>
		<path fill="#FCD290" d="M271.72,387.451h-5.351h-5.351c-17.752,0-33.824-7.196-45.458-18.829
			c-11.634-11.634-18.829-27.705-18.829-45.458v-41.318v-41.318c0-17.752,7.196-33.824,18.829-45.458s27.705-18.829,45.458-18.829
			h5.351h5.351c17.752,0,33.824,7.196,45.458,18.829c11.634,11.634,18.829,27.705,18.829,45.458v41.318v41.318
			c0,17.752-7.196,33.824-18.829,45.458C305.544,380.255,289.472,387.451,271.72,387.451z"/>
		<path fill="#502D43" d="M318.563,162.42h-42.739h-42.739c-9.936,0-18.971,4.041-25.546,10.56
			c-6.575,6.519-10.691,15.517-10.79,25.431h-0.009h-0.009v57.9v57.9h4.62h4.62c9.695,0,18.472-3.93,24.825-10.283
			s10.283-15.13,10.283-24.825v-21.987v-21.987h38.742h38.742c9.998,0,19.086-4.09,25.676-10.679s10.679-15.678,10.679-25.676
			s-4.09-19.086-10.679-25.676S328.561,162.42,318.563,162.42z"/>
		<path fill="#BCA1A1" d="M286.296,296.658h-42.299h-42.299c-4.546,0-8.662-1.843-11.641-4.822s-4.822-7.095-4.822-11.641v-1.37
			v-1.37c0-4.546,1.843-8.662,4.822-11.641c2.979-2.979,7.095-4.822,11.641-4.822h42.299h42.299c4.546,0,8.662,1.843,11.641,4.822
			c2.979,2.979,4.822,7.095,4.822,11.641v1.37v1.37c0,4.546-1.843,8.662-4.822,11.641S290.842,296.658,286.296,296.658z"/>
		<path fill="#EBD3D3" d="M330.873,296.658h-32.55h-32.55c-4.546,0-8.662-1.843-11.641-4.822c-2.979-2.979-4.822-7.095-4.822-11.641
			v-1.37v-1.37c0-4.546,1.843-8.662,4.822-11.641c2.979-2.979,7.095-4.822,11.641-4.822h32.55h32.55
			c4.546,0,8.662,1.843,11.641,4.822c2.979,2.979,4.822,7.095,4.822,11.641v1.37v1.37c0,4.546-1.843,8.662-4.822,11.641
			S335.419,296.658,330.873,296.658z"/>
		<path fill="#FC523A" d="M267.143,286.91c-2.229,0-4.251-0.907-5.715-2.371s-2.371-3.486-2.371-5.715
			c0-2.229,0.907-4.25,2.371-5.713c1.464-1.464,3.486-2.371,5.715-2.371h31.18h31.18c2.228,0,4.25,0.907,5.713,2.371
			c1.464,1.464,2.371,3.485,2.371,5.713c0,2.229-0.907,4.251-2.371,5.715s-3.485,2.371-5.713,2.371h-31.18H267.143z"/>
		<path fill="#FCD290" d="M487.036,423.056l-0.452-0.173l-0.452-0.173c-1.499-0.573-2.624-1.7-3.231-3.058
			c-0.607-1.358-0.695-2.948-0.122-4.447l8.492-22.211l8.492-22.211c0.573-1.499,1.7-2.624,3.058-3.231
			c1.358-0.607,2.948-0.695,4.447-0.122l0.452,0.173l0.452,0.173c1.499,0.573,2.624,1.7,3.231,3.058s0.696,2.948,0.122,4.447
			l-8.492,22.211l-8.492,22.211c-0.573,1.499-1.7,2.624-3.058,3.231C490.124,423.541,488.535,423.63,487.036,423.056z"/>
	</g>
	<polygon fill="#502D43" points="201.377,1150 328.306,1150 275.895,1121.224 238.657,1133.615 201.377,1117.23 	"/>
	<path fill="#FFFFFF" d="M267.143,270.74"/>
	<g>
		<polygon opacity="0.07" fill="#BCA1A1" points="329.167,270.74 1098.817,106.985 1089.034,451.895 329.167,286.91 		"/>
		<polygon opacity="0.07" fill="#BCA1A1" points="266.808,270.74 767.225,279.725 759.884,459.341 502.438,555.757 266.808,286.91 
					"/>
		<polygon opacity="0.08" fill="#BCA1A1" points="258.722,278.824 526.095,860.965 660.292,806.036 660.292,699.547 
			287.472,271.143 		"/>
		<polygon opacity="0.07" fill="#BCA1A1" points="712.21,862.223 297.987,286.91 297.987,270.74 1089.034,451.895 1073.309,731.063 
					"/>
		<g>
			<g>
				<path fill="#EBD3D3" d="M723.361,816.002c0.551-0.206,1.115-0.645,1.604-1.301c3.457-4.617,6.887-9.435,10.195-14.315
					c1.105-1.632,1.302-3.797,0.442-4.867c-0.861-1.069-2.459-0.657-3.596,0.945l-10.048,14.111
					c-1.135,1.593-1.387,3.771-0.567,4.898C721.868,816.126,722.602,816.286,723.361,816.002z"/>
				<path fill="#EBD3D3" d="M624.12,896.338c0.032-0.012,0.064-0.028,0.096-0.04c29.147-12.287,57.369-32.463,81.614-58.341
					c1.289-1.377,1.831-3.623,1.212-5.019c-0.617-1.405-2.166-1.418-3.455-0.04c-23.52,25.11-50.934,44.693-79.277,56.645
					c-1.43,0.602-2.609,2.601-2.636,4.467C621.65,895.834,622.737,896.856,624.12,896.338z"/>
				<path fill="#EBD3D3" d="M600.263,904.419c1.3-0.487,2.471-2.197,2.692-3.995c0.232-1.905-0.691-3.209-2.076-2.934l-14.321,2.869
					c-1.352,0.299-2.724,2.035-3.013,3.949c-0.289,1.918,0.577,3.293,1.95,3.093c4.733-0.683,9.62-1.66,14.529-2.91
					C600.104,904.474,600.184,904.449,600.263,904.419z"/>
				<path fill="#EBD3D3" d="M562.997,908.35c1.064-0.398,2.097-1.647,2.53-3.184c0.54-1.926-0.054-3.596-1.339-3.765l-12.945-1.714
					c-1.285-0.19-2.788,1.222-3.39,3.134c-0.602,1.916-0.08,3.655,1.173,3.914c4.199,0.88,8.629,1.466,13.169,1.746
					C562.458,908.499,562.73,908.451,562.997,908.35z"/>
			</g>
			<path fill="#FC523A" d="M438.846,700.44c5.575-136.391,94.133-278.821,197.409-317.499s182.763,40.818,177.188,177.209
				c-5.575,136.389-94.133,278.819-197.409,317.496S433.272,836.829,438.846,700.44z M446.6,697.536
				c-5.344,130.743,70.852,206.948,169.853,169.871c99-37.076,183.89-173.608,189.234-304.352s-70.851-206.946-169.85-169.87
				C536.836,430.262,451.944,566.792,446.6,697.536z"/>
			<path opacity="0.22" fill="#4CEAFC" d="M501.469,676.986c-3.717,90.934,49.089,143.745,117.945,117.957
				s127.688-120.407,131.405-211.341c3.717-90.933-49.089-143.745-117.945-117.957S505.185,586.053,501.469,676.986z"/>
			<g>
				<path fill="#EBD3D3" d="M715.174,865.187l358.135-134.124c1.723-0.645,3.209-3.036,3.302-5.311l25.17-615.802
					c0.093-2.276-1.241-3.61-2.964-2.964L740.682,241.109c-1.723,0.645-3.209,3.035-3.302,5.311l-25.17,615.802
					C712.117,864.498,713.451,865.832,715.174,865.187z"/>
				
					<linearGradient id="SVGID_1_" gradientUnits="userSpaceOnUse" x1="-56.4521" y1="350.3888" x2="322.159" y2="350.3888" gradientTransform="matrix(-1 0 0 1 1045.334 0)">
					<stop  offset="0" style="stop-color:#FC523A"/>
					<stop  offset="0.5165" style="stop-color:#FC935A"/>
					<stop  offset="1" style="stop-color:#FCAC75"/>
				</linearGradient>
				<path fill="url(#SVGID_1_)" d="M723.175,593.955l364.401-136.471l14.205-347.535c0.093-2.276-1.241-3.61-2.964-2.964
					L740.682,241.109c-1.723,0.645-3.209,3.035-3.302,5.311L723.175,593.955z"/>
				<path fill="#5A384D" d="M730.014,426.644c0,0,7.497-2.135,25.862-28.738c17.477-25.318,40.062,52.802,66.11,43.607
					c33.577-11.853,36.684-46.24,57.579-38.375c20.895,7.865,30.054,95.215,38.626,93.126c8.572-2.09,17.549-76.371,28.753-80.567
					c11.204-4.196,24.914,54.865,43.618,33.29c18.703-21.574,54.107-57.248,100.285-71.492l-3.27,79.989L723.175,593.955
					L730.014,426.644z"/>
				<polygon fill="#FFFFFF" points="957.725,745.128 1056.56,708.113 1060.376,614.77 961.54,651.784 				"/>
				<polygon fill="#FFFFFF" points="845.487,787.162 944.322,750.147 948.137,656.804 849.302,693.818 				"/>
				<polygon fill="#FFFFFF" points="733.249,829.196 832.084,792.181 835.899,698.838 737.064,735.852 				"/>
				<path fill="#FFFFFF" d="M812.404,608.451l247.564-92.715c2.489-0.932,4.635-4.383,4.769-7.67l0,0
					c0.134-3.286-1.792-5.213-4.281-4.281L812.892,596.5c-2.489,0.932-4.635,4.384-4.769,7.67l0,0
					C807.989,607.456,809.915,609.382,812.404,608.451z"/>
				<path fill="#FFFFFF" d="M744.59,660.746l314.261-117.693c2.489-0.932,4.635-4.384,4.769-7.67l0,0
					c0.134-3.287-1.792-5.213-4.281-4.281L745.078,648.795c-2.489,0.932-4.635,4.384-4.769,7.67l0,0
					C740.175,659.751,742.101,661.678,744.59,660.746z"/>
				<path fill="#FFFFFF" d="M743.473,688.062l314.261-117.693c2.489-0.932,4.635-4.384,4.769-7.67l0,0
					c0.134-3.286-1.792-5.213-4.281-4.281L743.962,676.111c-2.489,0.932-4.635,4.384-4.769,7.67l0,0
					C739.058,687.067,740.985,688.994,743.473,688.062z"/>
				<polygon opacity="0.1" fill="#502D43" points="735.596,290.064 923.631,518.883 723.175,593.955 				"/>
			</g>
			<g>
				<path fill="#FFFFFF" d="M595.033,577.981l112.134-41.995c1.429-0.535,2.648-2.495,2.725-4.382
					c0.077-1.887-1.017-2.981-2.446-2.446l-112.134,41.995c-1.427,0.534-2.649,2.496-2.726,4.383
					C592.509,577.423,593.606,578.516,595.033,577.981z"/>
				<path fill="#FFFFFF" d="M593.855,606.814l112.134-41.995c1.429-0.535,2.648-2.495,2.725-4.382
					c0.077-1.887-1.017-2.981-2.446-2.446l-112.134,41.995c-1.427,0.534-2.649,2.496-2.726,4.383
					C591.33,606.255,592.427,607.348,593.855,606.814z"/>
				<path fill="#FFFFFF" d="M592.676,635.648l112.134-41.995c1.429-0.535,2.648-2.495,2.725-4.382
					c0.077-1.887-1.017-2.981-2.446-2.446L592.955,628.82c-1.427,0.534-2.649,2.496-2.726,4.383
					C590.152,635.09,591.249,636.183,592.676,635.648z"/>
				<path fill="#FFFFFF" d="M591.497,664.485l112.134-41.995c1.429-0.535,2.648-2.5,2.725-4.384
					c0.077-1.887-1.017-2.981-2.446-2.446l-112.134,41.995c-1.427,0.534-2.649,2.496-2.726,4.383
					C588.973,663.922,590.07,665.019,591.497,664.485z"/>
			</g>
			<path fill="#FFFFFF" d="M498.56,685.812l2.736-66.937c0.286-7.007,4.836-14.324,10.143-16.311l50.686-18.982
				c5.307-1.988,9.391,2.096,9.104,9.103l-2.736,66.937c-0.286,7.007-4.836,14.324-10.143,16.311l-50.686,18.982
				C502.357,696.903,498.274,692.819,498.56,685.812z M511.16,609.392c-2.456,0.92-4.558,4.304-4.691,7.546l-2.736,66.937
				c-0.133,3.241,1.754,5.132,4.21,4.213l50.686-18.982c2.456-0.92,4.558-4.304,4.691-7.546l2.736-66.937
				c0.133-3.241-1.754-5.132-4.21-4.213L511.16,609.392z"/>
			<g>
				<path fill="#FC523A" d="M419.742,782.281c30.95-51.119,79.009-76.902,113.976-58.328
					c39.242,20.844,47.116,89.629,17.588,153.636c-29.528,64.007-85.277,98.997-124.518,78.153
					c-24.657-13.097-36.92-45.125-35.312-83l88.777-32.895L419.742,782.281z"/>
				<path fill="#5A384D" d="M419.742,782.281l60.51,57.566l-88.777,32.895c0.951-22.402,6.749-46.847,17.724-70.637
					C412.416,795.134,415.959,788.53,419.742,782.281z"/>
			</g>
			<path fill="#EBD3D3" d="M530.79,357.38L530.79,357.38c-1.564,0.586-2.905-0.441-3.046-2.466l0,0
				c-0.132-2.283,1.163-4.889,2.969-5.863l-0.032,0.012c1.808-1.017,3.372,0.011,3.506,2.252l0,0
				c0.166,2.227-1.161,4.845-2.937,5.849C531.118,357.257,530.952,357.319,530.79,357.38z M516.453,360.034L516.453,360.034
				c-0.456,0.171-0.909,0.214-1.352,0.082l0,0c-1.592-0.336-2.173-2.622-1.337-5.057l0,0c0.84-2.435,2.769-4.049,4.361-3.711l0,0
				c1.59,0.38,2.172,2.664,1.364,5.088C518.871,358.194,517.66,359.582,516.453,360.034z M544.457,344.414L544.457,344.414
				c-0.911,0.341-1.804,0.166-2.417-0.58l0,0c-1.068-1.34-0.827-4.102,0.605-6.123l0,0c1.401-2.051,3.447-2.604,4.547-1.279l0,0
				c1.071,1.339,0.83,4.101-0.603,6.164C545.971,343.507,545.177,344.144,544.457,344.414z M505.915,351.466L505.915,351.466
				c-1.077,0.403-2.062,0.095-2.628-0.923l0,0l0,0l0,0c-0.9-1.614-0.366-4.403,1.219-6.269l0,0c1.521-1.841,3.516-1.996,4.382-0.369
				l0,0c0.9,1.616,0.369,4.402-1.187,6.257C507.128,350.8,506.501,351.246,505.915,351.466z M553.049,325.203L553.049,325.203
				c-0.293,0.11-0.619,0.191-0.907,0.17l0,0c-1.672-0.01-2.551-2.056-1.969-4.48l0,0c0.616-2.478,2.46-4.399,4.129-4.388l0,0
				c1.701,0.042,2.583,2.044,1.969,4.48l0,0l0,0C555.807,322.984,554.451,324.678,553.049,325.203z M502.56,334.483L502.56,334.483
				c-1.794,0.672-3.15-0.687-3.053-3.055l0,0c0.004-0.086,0.007-0.172,0.011-0.259l0,0c0,0,0,0,0.002-0.044l0,0l0,0l0,0
				c0.095-2.327,1.64-4.813,3.435-5.443l0,0c1.794-0.672,3.116,0.743,3.019,3.111l0,0c-0.004,0.086-0.005,0.13-0.009,0.217l0,0
				C505.867,331.378,504.321,333.823,502.56,334.483z M553.902,305.88L553.902,305.88c-1.402,0.525-2.659-0.191-2.973-1.942l0,0
				c-0.396-2.058,0.679-4.792,2.4-6.073l0,0c1.758-1.338,3.497-0.674,3.896,1.383l0,0l0,0l0,0c0.397,2.099-0.681,4.837-2.434,6.129
				C554.49,305.616,554.195,305.77,553.902,305.88z M507.534,314.167L507.534,314.167c-0.618,0.231-1.198,0.238-1.733-0.028l0,0
				c-1.448-0.732-1.762-3.244-0.705-5.548l0,0c1.062-2.349,3.105-3.667,4.52-2.923l0,0c1.448,0.73,1.764,3.2,0.705,5.548l0,0
				C509.652,312.696,508.579,313.775,507.534,314.167z M546.706,292.541L546.706,292.541c-0.749,0.28-1.486,0.217-2.074-0.284l0,0
				c-1.275-1.051-1.326-3.704-0.047-5.923l0,0c1.244-2.204,3.274-3.134,4.549-2.085l0,0c1.306,1.037,1.326,3.704,0.078,5.909
				C548.523,291.351,547.62,292.199,546.706,292.541z M519.172,297.422L519.172,297.422c-1.239,0.464-2.378,0-2.835-1.399l0,0
				c-0.661-1.874,0.192-4.695,1.83-6.243l0,0c1.671-1.602,3.555-1.331,4.187,0.553l0,0c0.661,1.874-0.158,4.641-1.862,6.254
				C520.06,296.963,519.628,297.251,519.172,297.422z M533.764,289.37L533.764,289.37c-0.166,0.062-0.328,0.123-0.457,0.128l0,0
				c-1.747,0.315-2.899-1.375-2.541-3.841l0,0c0.356-2.424,2.052-4.629,3.832-4.956l0,0c1.748-0.315,2.867,1.387,2.509,3.853
				C536.792,286.751,535.328,288.784,533.764,289.37z"/>
			<path fill="#EBD3D3" d="M923.143,530.836c0.288-0.108,0.584-0.283,0.876-0.525c1.372-1.137,2.153-3.354,1.746-4.95
				l-103.63-406.303c-2.033-7.973-5.454-8.053-7.311-7.39c-0.025,0.01-0.049,0.018-0.073,0.027
				c-1.878,0.703-5.379,3.326-8.283,12.943l-16.381,54.238c-1.311,4.34-3.153,7.389-5.19,8.586
				c-2.027,1.173-4.208,0.505-6.121-1.942l-20.684-26.484c-3.081-3.942-6.85-4.788-10.615-2.406
				c-3.766,2.392-6.815,7.577-8.586,14.599l-32.878,130.407c-1.2,4.76-2.652,6.975-3.53,7.428c-0.905,0.503-2.455-0.211-3.997-3.553
				l-33.409-72.402c-2.285-4.95-5.656-6.736-9.379-5.293c-3.767,1.537-7.236,6.192-9.774,13.109l-14.509,39.548
				c-1.539,4.191-3.501,7.069-5.382,7.896c-1.899,0.871-3.832-0.334-5.35-3.181l-8.229-15.47c-2.482-4.665-6.018-6.334-9.916-4.667
				c-3.913,1.656-7.514,6.329-10.14,13.157l-26.827,69.774c-1.653,4.298-3.771,7.228-5.965,8.251
				c-2.12,0.976-4.358,0.093-6.104-2.621l-22.648-35.224c-0.779-1.208-2.374-0.942-3.582,0.602c-1.198,1.54-1.541,3.771-0.762,4.981
				l22.648,35.224c2.748,4.281,6.52,5.57,10.535,3.714c4.042-1.884,7.706-6.658,10.314-13.438l26.827-69.774
				c1.611-4.187,3.658-7.064,5.618-7.893c2.097-0.955,3.961,0.333,5.481,3.194l8.229,15.47c2.484,4.681,5.916,6.376,9.849,4.624
				c3.862-1.697,7.38-6.419,9.904-13.301l14.509-39.548c1.525-4.154,3.392-6.944,5.128-7.651c1.672-0.541,3.514,0.589,4.889,3.563
				l33.406,72.403c3.138,6.803,6.912,6.133,8.915,5.087c1.982-1.022,5.671-4.177,8.109-13.849l32.878-130.407
				c1.07-4.243,2.702-7.321,4.48-8.451c1.792-1.124,3.866-0.412,5.724,1.972l20.684,26.484c3.055,3.912,6.901,4.787,10.827,2.488
				c3.928-2.308,7.244-7.4,9.341-14.339l16.381-54.238c1.545-5.117,2.918-6.646,3.282-6.782l0.003-0.001
				c0.36-0.129,1.627,0.453,2.699,4.652L920.8,529.478C921.12,530.736,922.08,531.234,923.143,530.836z"/>
			<g>
				<path fill="#EBD3D3" d="M502.438,555.757l257.446-96.416c1.589-0.595,2.96-2.8,3.046-4.898l7.03-171.983
					c0.086-2.099-1.144-3.329-2.734-2.734l-257.446,96.416c-1.589,0.595-2.96,2.8-3.046,4.898l-7.03,171.983
					C499.618,555.122,500.848,556.352,502.438,555.757z"/>
				<path fill="#21A6B9" d="M504.661,431.752l263.225-98.58l2.073-50.713c0.086-2.099-1.144-3.329-2.734-2.734l-257.446,96.416
					c-1.589,0.595-2.96,2.8-3.046,4.898L504.661,431.752z"/>
				<g>
					<g>
						<polygon fill="#EBD3D3" points="518.911,390.876 541.492,382.42 541.648,378.602 519.067,387.059 						"/>
						<polygon fill="#EBD3D3" points="518.619,398.033 541.2,389.576 541.356,385.759 518.775,394.216 						"/>
						<polygon fill="#EBD3D3" points="518.326,405.19 540.907,396.734 541.063,392.917 518.482,401.374 						"/>
						<polygon fill="#EBD3D3" points="518.033,412.348 540.615,403.891 540.771,400.074 518.189,408.531 						"/>
					</g>
					<polygon fill="#EBD3D3" points="566.133,375.634 556.993,391.556 548.891,382.091 					"/>
				</g>
				<path opacity="0.17" fill="#21A6B9" d="M603.622,376.081l151.306-56.665c1.1-0.412,2.049-1.938,2.108-3.391l0.468-11.447
					c0.059-1.453-0.792-2.305-1.893-1.893L604.305,359.35c-1.1,0.412-2.049,1.938-2.109,3.391l-0.468,11.447
					C601.669,375.641,602.521,376.493,603.622,376.081z"/>
			</g>
			<g>
				<g>
					<polygon fill="#FC523A" points="809.342,124.079 818.894,120.502 819.41,107.887 809.858,111.465 					"/>
					<path fill="#EBD3D3" d="M808.048,124.564l0.516-12.615c0.039-0.942,0.65-1.925,1.363-2.192l9.553-3.578
						c0.714-0.267,1.262,0.281,1.224,1.224l-0.516,12.615c-0.039,0.942-0.65,1.925-1.363,2.192l-9.554,3.578
						C808.558,126.055,808.01,125.506,808.048,124.564z M818.047,110.08l-6.967,2.609l-0.376,9.198l6.967-2.609L818.047,110.08z"/>
				</g>
			</g>
			<g>
				<g>
					<polygon fill="#5A384D" points="743.506,168.489 753.058,164.911 753.574,152.297 744.021,155.874 					"/>
					<path fill="#EBD3D3" d="M742.212,168.974l0.516-12.617c0.039-0.942,0.65-1.925,1.363-2.192l9.552-3.577
						c0.714-0.267,1.262,0.281,1.224,1.224l-0.516,12.617c-0.039,0.942-0.65,1.925-1.363,2.192l-9.552,3.577
						C742.722,170.465,742.174,169.916,742.212,168.974z M752.21,154.488l-6.965,2.609l-0.376,9.2l6.965-2.609L752.21,154.488z"/>
				</g>
			</g>
			<g>
				<g>
					<polygon fill="#FC523A" points="778.842,199.235 788.394,195.657 788.91,183.042 779.357,186.62 					"/>
					<path fill="#EBD3D3" d="M777.548,199.72l0.516-12.615c0.039-0.942,0.65-1.925,1.363-2.193l9.553-3.578
						c0.714-0.267,1.262,0.281,1.224,1.224l-0.516,12.615c-0.039,0.942-0.65,1.925-1.363,2.192l-9.553,3.578
						C778.058,201.211,777.509,200.662,777.548,199.72z M787.547,185.235l-6.967,2.609l-0.376,9.198l6.967-2.609L787.547,185.235z"
						/>
				</g>
			</g>
			<g>
				<g>
					<polygon fill="#5A384D" points="620.757,298.443 630.309,294.866 630.825,282.252 621.272,285.829 					"/>
					<path fill="#EBD3D3" d="M619.463,298.929l0.516-12.615c0.039-0.942,0.65-1.925,1.363-2.192l9.554-3.578
						c0.714-0.267,1.262,0.281,1.224,1.224l-0.516,12.615c-0.039,0.942-0.65,1.925-1.363,2.192l-9.554,3.578
						C619.973,300.419,619.425,299.871,619.463,298.929z M629.462,284.444l-6.967,2.609l-0.376,9.198l6.967-2.609L629.462,284.444z"
						/>
				</g>
			</g>
			<g>
				<g>
					<polygon fill="#FC523A" points="650.224,241.193 659.776,237.615 660.292,225 650.739,228.578 					"/>
					<path fill="#EBD3D3" d="M648.93,241.676l0.516-12.615c0.039-0.942,0.65-1.925,1.363-2.192l9.554-3.578
						c0.714-0.267,1.262,0.281,1.223,1.224l-0.516,12.615c-0.039,0.942-0.65,1.925-1.363,2.192l-9.553,3.578
						C649.44,243.167,648.892,242.619,648.93,241.676z M658.93,227.192l-6.967,2.609L651.587,239l6.967-2.609L658.93,227.192z"/>
				</g>
			</g>
			<g>
				<g>
					<polygon fill="#FC523A" points="597.833,277.204 607.385,273.627 607.9,261.012 598.348,264.589 					"/>
					<path fill="#EBD3D3" d="M596.539,277.69l0.516-12.615c0.039-0.942,0.65-1.925,1.363-2.193l9.554-3.578
						c0.714-0.267,1.262,0.281,1.223,1.224l-0.516,12.615c-0.039,0.942-0.65,1.925-1.363,2.192l-9.553,3.578
						C597.049,279.181,596.5,278.632,596.539,277.69z M606.538,263.205l-6.967,2.609l-0.376,9.199l6.967-2.609L606.538,263.205z"/>
				</g>
			</g>
			<g>
				<g>
					<polygon fill="#FC523A" points="523.68,328.589 533.232,325.012 533.748,312.397 524.195,315.974 					"/>
					<path fill="#EBD3D3" d="M522.386,329.073l0.516-12.615c0.039-0.942,0.65-1.925,1.363-2.192l9.554-3.578
						c0.714-0.267,1.262,0.281,1.224,1.224l-0.516,12.615c-0.039,0.942-0.65,1.925-1.363,2.192l-9.554,3.578
						C522.896,330.564,522.347,330.015,522.386,329.073z M532.385,314.589l-6.967,2.609l-0.376,9.199l6.967-2.609L532.385,314.589z"
						/>
				</g>
			</g>
			<path fill="#EBD3D3" d="M389.664,916.637L389.664,916.637c-1.797,0.673-3.153-0.683-3.056-3.052l0,0
				c0.097-2.369,1.608-4.803,3.404-5.476l0,0c1.794-0.672,3.149,0.689,3.053,3.057l0,0c-0.097,2.368-1.643,4.812-3.436,5.483
				C389.664,916.637,389.664,916.637,389.664,916.637z M404.75,905.854L404.75,905.854c-1.14,0.427-2.185,0.056-2.718-1.103l0,0
				c-0.828-1.682-0.167-4.515,1.413-6.254l0,0c1.582-1.781,3.543-1.795,4.339-0.096l0,0c0.83,1.723,0.17,4.518-1.412,6.295
				C405.834,905.278,405.273,905.658,404.75,905.854z M375.002,916.954L375.002,916.954c-0.554,0.208-1.102,0.243-1.575-0.003l0,0
				l0,0l0,0c-1.516-0.58-1.932-3.009-0.934-5.379l0,0c0.962-2.353,2.981-3.788,4.466-3.197l0,0c1.485,0.587,1.932,3.009,0.938,5.374
				C377.251,915.349,376.111,916.538,375.002,916.954z M416.199,887.444L416.199,887.444c-0.523,0.196-1.1,0.196-1.574-0.007l0,0
				c-1.517-0.575-1.932-3.009-0.938-5.374l0,0c0.965-2.358,2.986-3.836,4.469-3.202l0,0c1.516,0.58,1.932,3.009,0.936,5.42l0,0
				c0.002-0.042,0.002-0.042,0.002-0.042C418.448,885.836,417.34,887.017,416.199,887.444z M364.727,906.634L364.727,906.634
				c-1.109,0.415-2.154,0.044-2.717-1.062l0,0l0,0l0,0c-0.798-1.735-0.17-4.518,1.412-6.295l0,0
				c1.615-1.752,3.543-1.795,4.374-0.114l0,0c0.795,1.741,0.167,4.519-1.447,6.313C365.843,906.046,365.282,906.426,364.727,906.634
				z M421.011,866.338L421.011,866.338c-1.792,0.63-3.148-0.727-3.051-3.099l0,0c0.097-2.369,1.64-4.81,3.4-5.428l0,0
				c1.797-0.673,3.153,0.683,3.056,3.056l0,0l0,0C424.321,863.193,422.808,865.665,421.011,866.338z M361.55,888.524L361.55,888.524
				c-1.794,0.672-3.151-0.73-3.056-3.056l0,0l0,0l0,0c0.002-0.042,0.003-0.084,0.003-0.084l0,0c0.002-0.046,0.004-0.088,0.005-0.13
				l0,0c0.095-2.327,1.641-4.774,3.435-5.445l0,0c1.762-0.66,3.153,0.688,3.024,3.068l0,0c-0.002,0.042-0.005,0.13-0.007,0.172l0,0
				C364.859,885.375,363.343,887.852,361.55,888.524z M417.867,848.174L417.867,848.174c-1.109,0.415-2.154,0.044-2.715-1.104l0,0
				c-0.798-1.739-0.17-4.518,1.445-6.27l0,0c1.581-1.777,3.542-1.791,4.339-0.096l0,0c0.795,1.741,0.17,4.518-1.413,6.258
				C418.988,847.543,418.421,847.966,417.867,848.174z M366.403,867.236L366.403,867.236c-0.554,0.208-1.103,0.198-1.606,0.005l0,0
				c-1.488-0.586-1.9-3.021-0.938-5.374l0,0c0.997-2.366,3.013-3.8,4.501-3.214l0,0c1.483,0.634,1.9,3.021,0.901,5.433l0,0
				C368.621,865.639,367.512,866.821,366.403,867.236z M407.594,837.808L407.594,837.808c-0.519,0.194-1.102,0.247-1.573,0.038l0,0
				c-1.518-0.616-1.935-3.008-0.936-5.416l0,0c0.965-2.358,2.981-3.788,4.464-3.159l0,0c0.035-0.013,0.035-0.013,0.035-0.013l0,0
				c1.485,0.591,1.9,3.021,0.903,5.391C409.845,836.244,408.738,837.38,407.594,837.808z M377.915,848.84L377.915,848.84
				c-1.14,0.427-2.186,0.056-2.718-1.103l0,0c-0.827-1.729-0.167-4.519,1.413-6.254l0,0c1.617-1.794,3.543-1.795,4.374-0.114l0,0
				c0.795,1.741,0.135,4.531-1.447,6.312C379,848.223,378.437,848.645,377.915,848.84z M392.969,838.07L392.969,838.07
				c-1.762,0.66-3.153-0.688-3.056-3.056l0,0c0.132-2.382,1.643-4.816,3.436-5.487l0,0c1.797-0.673,3.151,0.73,3.056,3.056
				C396.309,834.951,394.763,837.398,392.969,838.07z"/>
			<path fill="#EBD3D3" d="M1101.564,172.295L1101.564,172.295c-1.534,0.574-2.844-0.377-3.052-2.335l0,0
				c-0.2-2.216,1.067-4.896,2.845-5.943l0,0c1.776-1.048,3.377-0.119,3.575,2.097l0,0c0.231,2.202-1.032,4.84-2.81,5.887
				C1101.924,172.119,1101.726,172.234,1101.564,172.295z M1086.429,177.922L1086.429,177.922c-0.196,0.073-0.392,0.147-0.586,0.176
				l0,0c-1.744,0.229-2.828-1.528-2.406-3.977l0,0c0.388-2.436,2.148-4.622,3.892-4.85l0,0c1.746-0.273,2.83,1.484,2.41,3.932
				C1089.393,175.368,1087.963,177.347,1086.429,177.922z M1116.098,160.108L1116.098,160.108c-1.14,0.427-2.187,0.098-2.719-1.061
				l0,0c-0.796-1.738-0.168-4.517,1.411-6.254l0,0c1.583-1.782,3.544-1.837,4.341-0.099l0,0c0.832,1.681,0.17,4.518-1.412,6.256
				C1117.215,159.52,1116.654,159.9,1116.098,160.108z M1072.454,176.41L1072.454,176.41c-0.554,0.208-1.102,0.245-1.575,0.039l0,0
				c-1.516-0.619-1.933-3.008-0.968-5.406l0,0c0.995-2.367,3.015-3.801,4.499-3.212l0,0c1.485,0.631,1.9,3.021,0.934,5.419
				C1074.671,174.817,1073.564,175.994,1072.454,176.41z M1128.235,142.921L1128.235,142.921c-0.75,0.281-1.453,0.204-2.046-0.209
				l0,0c-1.308-1.037-1.361-3.647-0.145-5.884l0,0c1.216-2.239,3.28-3.223,4.588-2.228l0,0c1.276,1.007,1.361,3.647,0.112,5.896
				C1130.083,141.72,1129.15,142.579,1128.235,142.921z M1061.401,167.867L1061.401,167.867c-0.914,0.342-1.839,0.179-2.418-0.58
				l0,0c-1.067-1.382-0.793-4.156,0.638-6.177l0,0c1.431-2.021,3.477-2.574,4.545-1.193l0,0c1.068,1.381,0.761,4.168-0.67,6.189
				C1062.88,167.016,1062.118,167.598,1061.401,167.867z M1136.542,122.799L1136.542,122.799c-0.392,0.147-0.747,0.195-1.098,0.158
				l0,0c-1.663-0.185-2.411-2.322-1.7-4.75l0.002-0.044c0.709-2.428,2.582-4.234,4.245-4.092l0,0c1.631,0.195,2.411,2.32,1.7,4.792
				l0,0c0.002-0.042,0.002-0.042,0.002-0.042C1139.132,120.769,1137.847,122.311,1136.542,122.799z M1054.508,153.395
				L1054.508,153.395c-1.305,0.489-2.5-0.124-2.92-1.663l0,0l0,0l0,0c-0.495-2.021,0.452-4.751,2.149-6.192l0,0
				c1.73-1.454,3.541-0.987,4.039,0.989l0,0c0.53,1.966-0.42,4.739-2.149,6.192C1055.262,153.028,1054.9,153.249,1054.508,153.395z
				 M1139.991,102.081L1139.991,102.081c-1.794,0.672-3.151-0.688-3.054-3.057l0,0c0.097-2.369,1.609-4.801,3.403-5.473l0,0
				c1.793-0.672,3.151,0.727,3.056,3.054C1143.299,98.974,1141.785,101.409,1139.991,102.081z M1052.704,134.686L1052.704,134.686
				c-1.795,0.672-3.151-0.73-3.056-3.056l0,0c0.002-0.042,0.004-0.086,0.005-0.128l0,0c0.002-0.044,0.004-0.086,0.005-0.13l0,0
				c0.097-2.369,1.643-4.814,3.404-5.474l0,0c1.794-0.672,3.149,0.728,3.054,3.055l0,0c-0.004,0.086-0.007,0.172-0.01,0.259l0,0
				C1056.012,131.537,1054.497,134.014,1052.704,134.686z M1138.219,83.358L1138.219,83.358c-1.338,0.501-2.531-0.154-2.95-1.693
				l0,0c-0.498-1.978,0.451-4.751,2.181-6.204l0,0c1.695-1.399,3.509-0.977,4.037,1.032l0,0c0.496,1.979-0.452,4.751-2.181,6.204
				C1138.941,83.002,1138.577,83.223,1138.219,83.358z M1056.193,113.737L1056.193,113.737c-0.358,0.134-0.747,0.195-1.098,0.157
				l0,0c-1.663-0.183-2.411-2.32-1.702-4.748l0,0c0.711-2.472,2.618-4.29,4.247-4.095l0,0c1.663,0.183,2.411,2.322,1.702,4.75
				C1058.781,111.708,1057.498,113.249,1056.193,113.737z M1131.361,68.832L1131.361,68.832c-0.914,0.342-1.806,0.167-2.417-0.624
				l0,0c-1.068-1.381-0.795-4.112,0.636-6.133l0,0c1.432-2.021,3.478-2.576,4.545-1.193l0,0l0,0l0,0
				c1.068,1.381,0.761,4.168-0.67,6.189C1132.842,67.937,1132.078,68.563,1131.361,68.832z M1064.532,93.605L1064.532,93.605
				c-0.75,0.281-1.453,0.204-2.046-0.209l0,0c-1.308-1.037-1.361-3.647-0.145-5.884l0,0c1.248-2.251,3.28-3.223,4.588-2.228l0,0
				c1.308,0.995,1.361,3.647,0.145,5.884C1066.38,92.403,1065.446,93.262,1064.532,93.605z M1120.308,60.245L1120.308,60.245
				c-0.554,0.208-1.101,0.243-1.608,0.051l0,0c-1.483-0.634-1.9-3.023-0.934-5.421l0,0c0.997-2.366,3.015-3.801,4.498-3.169l0,0
				c1.486,0.589,1.901,3.022,0.938,5.376C1122.525,58.694,1121.418,59.829,1120.308,60.245z M1076.703,76.406L1076.703,76.406
				c-1.11,0.416-2.189,0.099-2.72-1.061l0,0c-0.828-1.726-0.168-4.519,1.415-6.298l0,0l0,0l0,0c1.613-1.75,3.539-1.75,4.371-0.067
				l0,0c0.798,1.694,0.136,4.531-1.445,6.268l0,0C1077.819,75.818,1077.257,76.198,1076.703,76.406z M1106.368,58.678
				L1106.368,58.678c-0.196,0.073-0.392,0.147-0.552,0.163l0,0c-1.744,0.231-2.828-1.528-2.406-3.977l0,0
				c0.388-2.436,2.148-4.622,3.858-4.838l0,0c1.746-0.273,2.828,1.528,2.44,3.964C1109.33,56.169,1107.902,58.104,1106.368,58.678z
				 M1091.234,64.303L1091.234,64.303c-1.566,0.586-2.876-0.365-3.052-2.334l0,0c-0.198-2.217,1.068-4.896,2.845-5.943l0,0
				c1.777-1.047,3.379-0.12,3.577,2.097l0,0c0.231,2.204-1.066,4.852-2.845,5.943l0.033-0.013
				C1091.594,64.168,1091.397,64.241,1091.234,64.303z"/>
			<path fill="#21A6B9" d="M740.037,587.64c-0.861,21.073,11.376,33.312,27.333,27.336c15.957-5.976,29.591-27.904,30.452-48.977
				c0.861-21.073-11.376-33.312-27.333-27.336C754.533,544.64,740.899,566.567,740.037,587.64z"/>
			<path fill="#21A6B9" d="M768.308,572.01l320.726-120.114l-0.203,10.163L767.889,582.254c-2.142,0.802-3.785-0.84-3.669-3.67
				C764.336,575.755,766.166,572.812,768.308,572.01z"/>
			<g>
				<path fill="#EBD3D3" d="M1104.939,403.909c1.429-0.535,2.648-2.495,2.725-4.382l4.413-107.969
					c0.077-1.887-1.017-2.981-2.446-2.446s-2.647,2.495-2.725,4.382l-4.413,107.969
					C1102.416,403.35,1103.51,404.444,1104.939,403.909z"/>
				<path fill="#EBD3D3" d="M1109.959,281.081c0.01-0.004,0.019-0.007,0.03-0.011c1.428-0.556,2.636-2.53,2.696-4.411l0.496-15.408
					c0.061-1.866-1.033-2.936-2.447-2.406c-0.01,0.004-0.019,0.007-0.03,0.011c-1.428,0.556-2.636,2.53-2.696,4.411l-0.496,15.408
					C1107.452,280.541,1108.545,281.61,1109.959,281.081z"/>
				<path fill="#EBD3D3" d="M1103.728,433.509c0.024-0.009,0.048-0.018,0.072-0.027c1.429-0.587,2.62-2.578,2.658-4.449l0.135-6.569
					c0.04-1.873-1.04-2.923-2.519-2.327c-1.429,0.587-2.62,2.578-2.658,4.448l-0.135,6.569
					C1101.242,432.994,1102.332,434.032,1103.728,433.509z"/>
			</g>
			<g>
				<path fill="#21A6B9" d="M916.608,821.874c-0.206,5.041,2.721,7.969,6.538,6.539c3.817-1.43,7.079-6.675,7.285-11.716
					c0.206-5.041-2.722-7.969-6.539-6.539C920.076,811.587,916.815,816.833,916.608,821.874z"/>
				<path fill="#21A6B9" d="M885.996,833.338c-0.206,5.041,2.722,7.969,6.538,6.539c3.817-1.43,7.079-6.675,7.285-11.716
					s-2.721-7.969-6.539-6.539C889.464,823.052,886.202,828.297,885.996,833.338z"/>
				<path fill="#21A6B9" d="M855.384,844.803c-0.206,5.041,2.721,7.969,6.538,6.539c3.817-1.43,7.079-6.675,7.285-11.716
					c0.206-5.041-2.721-7.969-6.539-6.539C858.852,834.516,855.59,839.762,855.384,844.803z"/>
			</g>
			<g>
				<path fill="#21A6B9" d="M648.448,482.288c-0.143,3.511,1.895,5.55,4.554,4.555c2.659-0.996,4.93-4.649,5.074-8.16
					c0.143-3.511-1.896-5.55-4.554-4.555C650.864,475.123,648.592,478.776,648.448,482.288z"/>
				<path fill="#21A6B9" d="M627.127,490.273c-0.143,3.511,1.895,5.55,4.554,4.555c2.659-0.996,4.93-4.649,5.074-8.16
					c0.144-3.511-1.895-5.551-4.554-4.555C629.542,483.108,627.27,486.761,627.127,490.273z"/>
				<path fill="#21A6B9" d="M605.805,498.258c-0.143,3.511,1.895,5.55,4.554,4.555c2.659-0.996,4.93-4.649,5.074-8.16
					c0.144-3.511-1.895-5.551-4.554-4.555C608.22,491.093,605.948,494.747,605.805,498.258z"/>
			</g>
			<path fill="#EBD3D3" d="M647.88,700.326l-105.339,39.45c-8.259,3.093-15.381,14.548-15.827,25.454l-2.847,69.646
				c-5.098,1.595-9.628,0.674-13.031-2.207c-0.358,19.12,10.028,30.746,24.131,27.858c0.862-0.116,1.75-0.324,2.665-0.667
				l105.339-39.45c8.259-3.093,15.38-14.547,15.826-25.454l3.287-80.423C662.531,703.627,656.139,697.233,647.88,700.326z"/>
			<g>
				<path fill="#FFFFFF" d="M542.907,776.624l102.775-38.49c2.489-0.932,4.635-4.383,4.769-7.67l0,0
					c0.134-3.286-1.792-5.213-4.281-4.281l-102.775,38.49c-2.489,0.932-4.635,4.384-4.769,7.67l0,0
					C538.493,775.63,540.419,777.556,542.907,776.624z"/>
				<path fill="#FFFFFF" d="M541.791,803.94l102.775-38.49c2.489-0.932,4.635-4.384,4.769-7.67l0,0
					c0.134-3.287-1.792-5.213-4.281-4.281l-102.775,38.49c-2.489,0.932-4.635,4.383-4.769,7.67l0,0
					C537.376,802.946,539.302,804.872,541.791,803.94z"/>
				<path fill="#FFFFFF" d="M540.674,831.256l102.775-38.49c2.489-0.932,4.635-4.383,4.769-7.67l0,0
					c0.134-3.286-1.792-5.213-4.281-4.281l-102.775,38.49c-2.489,0.932-4.635,4.383-4.769,7.67l0,0
					C536.26,830.262,538.186,832.188,540.674,831.256z"/>
			</g>
			<g>
				<path fill="#FFFFFF" d="M596.318,427.121l144.143-53.983c2.489-0.932,4.635-4.384,4.769-7.67l0,0
					c0.134-3.286-1.792-5.212-4.281-4.28l-144.143,53.983c-2.489,0.932-4.634,4.383-4.769,7.669l0,0
					C591.903,426.127,593.829,428.053,596.318,427.121z"/>
				<path fill="#FFFFFF" d="M528.504,479.416l210.841-78.962c2.489-0.932,4.635-4.383,4.769-7.67l0,0
					c0.134-3.287-1.792-5.213-4.281-4.281l-210.841,78.961c-2.489,0.932-4.634,4.383-4.769,7.67l0,0
					C524.089,478.422,526.015,480.348,528.504,479.416z"/>
				<path fill="#FFFFFF" d="M527.388,506.732l210.841-78.962c2.489-0.932,4.635-4.383,4.769-7.67l0,0
					c0.134-3.286-1.792-5.213-4.281-4.281l-210.841,78.961c-2.489,0.932-4.634,4.383-4.769,7.67l0,0
					C522.973,505.738,524.899,507.664,527.388,506.732z"/>
			</g>
			<path fill="#FC523A" d="M768.09,597.384c8.587-3.216,15.948-15.055,16.411-26.395c0.464-11.34-6.144-17.948-14.73-14.732
				c-3.74,1.401-7.43,4.533-10.387,8.818c-1.13,1.639-1.336,3.839-0.461,4.916c0.873,1.077,2.505,0.62,3.633-1.017
				c1.974-2.862,4.437-4.953,6.936-5.889c5.736-2.148,10.149,2.266,9.839,9.841c-0.31,7.575-5.227,15.483-10.962,17.631
				s-10.149-2.266-9.839-9.84c0.077-1.887-1.017-2.981-2.445-2.446c-1.429,0.535-2.648,2.495-2.725,4.382
				C752.896,593.992,759.503,600.6,768.09,597.384z"/>
		</g>
	</g>
</g>
</svg>
